inDegrees=yes
name=ik_lifting_orientations
DataType=double
version=3
OpenSimVersion=4.5-2024-01-10-34fd6af
endheader
time	pelvis_tilt	pelvis_list	pelvis_rotation	pelvis_tx	pelvis_ty	pelvis_tz	hip_flexion_r	hip_adduction_r	hip_rotation_r	knee_angle_r	knee_angle_r_beta	ankle_angle_r	subtalar_angle_r	mtp_angle_r	hip_flexion_l	hip_adduction_l	hip_rotation_l	knee_angle_l	knee_angle_l_beta	ankle_angle_l	subtalar_angle_l	mtp_angle_l	lumbar_extension	lumbar_bending	lumbar_rotation	arm_flex_r	arm_add_r	arm_rot_r	elbow_flex_r	pro_sup_r	wrist_flex_r	wrist_dev_r	arm_flex_l	arm_add_l	arm_rot_l	elbow_flex_l	pro_sup_l	wrist_flex_l	wrist_dev_l
1.21	2.02143482864715	25.72689785680616	-93.50982864755187	0	0.9399999998679526	0	43.71583563794858	-10.37846114620518	0	58.26038366835856	1.016835518487989	-5.154286692957163	0	0	43.71583563794858	-10.37846114620518	0	58.26038366835856	1.016835518487989	-5.154286692957163	0	0	-21.71551097606114	2.943121226695117	-7.730961662071107	52.30667455199733	5.585166070087889	17.70615024758754	0.04060888232205741	4.694952780386763	0	0	0	-10.39584466031616	0	85.35424396245529	4.694952780386763	0	0
1.22	2.004285019975637	24.73153550913735	-93.48417922631526	0	0.9399999998679526	0	43.7160934038948	-10.37819824384226	0	58.26066002242631	1.016840341776373	-5.154147141252756	0	0	43.7160934038948	-10.37819824384226	0	58.26066002242631	1.016840341776373	-5.154147141252756	0	0	-21.90108264977279	2.965300442372011	-7.87792768467745	51.54043763804074	5.126078200120853	17.97875135897901	0.04123077760569695	4.694293625556551	0	0	0	-10.39632112792177	0	85.35489615138756	4.694293625556551	0	0
1.23	1.9571221950676	23.80110376790165	-93.42509601660824	0	0.9399999998679526	0	43.71660932774533	-10.37766846789662	0	58.26120981872841	1.016849937532059	-5.153865621086458	0	0	43.71660932774533	-10.37766846789662	0	58.26120981872841	1.016849937532059	-5.153865621086458	0	0	-21.31646295289389	3.005021458319712	-8.083037527965576	50.02896762423688	4.573893711640951	18.52834387521093	0.04197480086218722	4.692977257868118	0	0	0	-10.39727079100593	0	85.35619860691546	4.692977257868118	0	0
1.24	1.964082240195493	22.79619833563833	-93.40819610573591	0	0.9399999998679526	0	43.71701864473761	-10.37724949163322	0	58.26164680831794	1.016857564439194	-5.153643166137641	0	0	43.71701864473761	-10.37724949163322	0	58.26164680831794	1.016857564439194	-5.153643166137641	0	0	-20.76011438695696	2.848364702513932	-8.144537954743161	48.47063306251148	4.04312515000913	19.09542981248892	0.04341803203345498	4.691932078478541	0	0	0	-10.39802529949229	0	85.3572327404807	4.691932078478541	0	0
1.25	2.003692606157383	21.84938590774699	-93.36624448004218	0	0.9399999998679526	0	43.71746515039472	-10.3767923721344	0	58.26212314028053	1.016865878000273	-5.153400500231628	0	0	43.71746515039472	-10.3767923721344	0	58.26212314028053	1.016865878000273	-5.153400500231628	0	0	-20.26661893997366	2.599089265054463	-8.153939872798787	46.9614125002976	3.417897846502378	19.60081842229821	0.04587172054676805	4.69079218237898	0	1.269818100225673e-64	0	-10.39884800935587	0	85.35836058969082	4.69079218237898	0	1.269818100225673e-64
1.26	2.007717599152031	21.34728013146183	-93.36051876562935	0	0.9399999998679526	0	43.71797294379095	-10.37627281687468	0	58.26266476425252	1.016875331121892	-5.153124779147867	0	0	43.71797294379095	-10.37627281687468	0	58.26266476425252	1.016875331121892	-5.153124779147867	0	0	-19.26757772610555	2.507355284883945	-8.095226453323221	45.3882645483897	2.778301807829812	20.00819161357378	0.04654041271088413	4.689495802073651	0	0	0	-10.39978364929769	0	85.35964326933532	4.689495802073651	0	0
1.27	2.178511089144754	20.52174209832282	-93.45607620776258	0	0.9399999998679526	0	43.71839543458368	-10.37584198619646	0	58.2631163422933	1.016883212645534	-5.152896335359283	0	0	43.71839543458368	-10.37584198619646	0	58.2631163422933	1.016883212645534	-5.152896335359283	0	0	-18.69854828108297	2.276045080651488	-8.090080424174156	43.93578144014456	2.154067954102307	20.45805312564572	0.04747750771824569	4.688416256574009	0	0	0	-10.40056336322873	0	85.36071140606556	4.688416256574009	0	0
1.28	2.345497385642986	19.68153952427304	-93.56333123661327	0	0.9399999998679526	0	43.71884675743928	-10.37538069869295	0	58.26359758243922	1.016891611870573	-5.152651679376963	0	0	43.71884675743928	-10.37538069869295	0	58.26359758243922	1.016891611870573	-5.152651679376963	0	0	-18.09673657997169	1.958851999581056	-8.044775465832384	41.92481781019211	0.9964994828328213	20.57569217325205	0.06833542417279932	4.687264012922201	0	0	0	-10.4013949563611	0	85.36185147237879	4.687264012922201	0	0
1.29	2.430179270808556	18.98552590887411	-93.54035490194312	0	0.9399999998679526	0	43.71929626463211	-10.3749206334948	0	58.264076069548	1.016899963046049	-5.15240765483088	0	0	43.71929626463211	-10.3749206334948	0	58.264076069548	1.016899963046049	-5.15240765483088	0	0	-17.39983240764765	1.786944509813834	-8.163416872458866	40.57392620772555	0.1378219872726908	20.57788105768554	0.08034109352648168	4.686117065573405	0	0	0	-10.40222229326931	0	85.36298629817134	4.686117065573405	0	0
1.3	2.506424045265016	18.16031327630012	-93.62810324206318	0	0.9399999998679526	0	43.71975266425517	-10.37445373833003	0	58.26456176522526	1.01690844003478	-5.152160083039411	0	0	43.71975266425517	-10.37445373833003	0	58.26456176522526	1.01690844003478	-5.152160083039411	0	0	-16.92217899055545	1.511126296349847	-8.058510406339453	39.1849920657402	-0.9246434588194579	20.32495961958303	0.1134691088121851	4.684952556338471	0	0	0	-10.4030622605477	0	85.36413850024917	4.684952556338471	0	0
1.31	2.607608616654235	17.3202925929761	-93.66690566799195	0	0.9399999998679526	0	43.72008247661511	-10.37411722019856	0	58.26491329040607	1.016914575306589	-5.151981765208768	0	0	43.72008247661511	-10.37411722019856	0	58.26491329040607	1.016914575306589	-5.151981765208768	0	0	-16.46865461149432	1.231092222874479	-8.082644818978485	37.95156611968521	-1.922165529585605	20.37196631072771	0.2366056701778408	4.684110485581767	0	0	0	-10.40366998177585	0	85.36497167172351	4.684110485581767	0	0
1.32	2.779699210415286	16.55547539577566	-93.82019964907157	0	0.9399999998679526	0	43.72055757107945	-10.37363237676602	0	58.26541927028318	1.016923406321393	-5.151724894175675	0	0	43.72055757107945	-10.37363237676602	0	58.26541927028318	1.016923406321393	-5.151724894175675	0	0	-15.90441703549645	0.8186996134843151	-7.966227427738156	36.23038665763648	-3.151021133849879	20.62043248721087	1.198785796500023	4.68289775186251	0	0	0	-10.40454501780232	0	85.36617158879861	4.68289775186251	0	0
1.33	2.975665816015425	15.78835779116024	-93.97691672292757	0	0.9399999998679526	0	43.72253814988747	-10.37161746520725	0	58.26752616315181	1.016960178538938	-5.150659249043724	0	0	43.72253814988747	-10.37161746520725	0	58.26752616315181	1.016960178538938	-5.150659249043724	0	0	-15.34771762131506	0.3960954240105799	-7.776430137592403	34.10663667766212	-4.691478397086833	21.06337722389177	3.261025360629231	4.677842599294769	0	0	0	-10.40819143363165	0	85.37117331635915	4.677842599294769	0	0
1.34	3.161789642571075	15.00216615550076	-94.13140747868783	0	0.9399999998679526	0	43.72406097463345	-10.37007565684435	0	58.26914799172189	1.016988484787388	-5.149845275919956	0	0	43.72406097463345	-10.37007565684435	0	58.26914799172189	1.016988484787388	-5.149845275919956	0	0	-14.81241097695461	-0.01804123581009553	-7.577715697478885	31.88169331981376	-6.340902251235899	21.37211002804839	5.419905294430034	4.673952866964743	0	0	0	-10.41099870295194	0	85.37502194133168	4.673952866964743	0	0
1.35	3.226984953617612	14.21532538749476	-94.21238655420869	0	0.9399999998679526	0	43.7247213411557	-10.36940612159286	0	58.269850989705	1.017000754416829	-5.149491650694409	0	0	43.7247213411557	-10.36940612159286	0	58.269850989705	1.017000754416829	-5.149491650694409	0	0	-14.35429789504756	-0.2722220740870789	-7.405396951365995	29.75506968110085	-7.95885805069025	21.21702521814092	7.358562901389362	4.672266310215562	0	0	0	-10.4122158984586	0	85.37669067428574	4.672266310215562	0	0
1.36	3.280979310352915	13.40779423115392	-94.303225476913	0	0.9399999998679526	0	43.7252306165164	-10.36889097040112	0	58.2703937270197	1.017010226969944	-5.149219756970584	0	0	43.7252306165164	-10.36889097040112	0	58.2703937270197	1.017010226969944	-5.149219756970584	0	0	-14.09993557040048	-0.5044812618441477	-7.190108248035554	27.76719586687947	-9.528434851249205	20.73406290043695	9.131957601266105	4.670964975025321	0	0	0	-10.41315546295514	0	85.37797825697625	4.670964975025321	0	0
1.37	3.23165573066232	12.59795434273274	-94.28192612461615	0	0.9399999998679526	0	43.72576845019339	-10.36834719983594	0	58.27096671592551	1.017020227512927	-5.14893285241643	0	0	43.72576845019339	-10.36834719983594	0	58.27096671592551	1.017020227512927	-5.14893285241643	0	0	-13.781349956818	-0.585285688283831	-6.942264898484082	25.73320682426206	-11.10153846930161	19.97901769585511	10.64738773387739	4.669590712691035	0	0	0	-10.4141476223665	0	85.37933799611615	4.669590712691035	0	0
1.38	3.110912864581245	11.68459755651297	-94.15439636179551	0	0.9399999998679526	0	43.72626298133105	-10.36784798230274	0	58.27149384426332	1.017029427638003	-5.148669595598837	0	0	43.72626298133105	-10.36784798230274	0	58.27149384426332	1.017029427638003	-5.148669595598837	0	0	-13.45879717570643	-0.6011568773122958	-6.832551057323593	23.48934339431526	-12.64321041442378	19.15823179536058	12.14662753742911	4.668326735733158	0	0	0	-10.41506035914244	0	85.3805886154951	4.668326735733158	0	0
1.39	2.980230134727188	10.79179837612886	-94.0348046844245	0	0.9399999998679526	0	43.72695410238416	-10.367151448997	0	58.2722308225318	1.017042290335303	-5.148302509198854	0	0	43.72695410238416	-10.367151448997	0	58.2722308225318	1.017042290335303	-5.148302509198854	0	0	-13.22496840202735	-0.6225043406612333	-6.588615745179655	21.21154301326956	-14.1504360189698	18.57914537530083	13.78503863474443	4.666559826877651	0	0	0	-10.41633651394305	0	85.38233685199792	4.666559826877651	0	0
1.4	2.885096999597879	9.92820258897717	-93.93555998269574	0	0.9399999998679526	0	43.72762549835377	-10.36647648895998	0	58.27294750748041	1.017054798847356	-5.147947077059212	0	0	43.72762549835377	-10.36647648895998	0	58.27294750748041	1.017054798847356	-5.147947077059212	0	0	-13.03776269278553	-0.6167556902190716	-6.393898080021793	18.57245071040883	-15.94440460249147	17.97558588128317	16.07952948858335	4.664842466987404	0	0	0	-10.4175773831802	0	85.38403606344485	4.664842466987404	0	0
1.41	2.747559437422431	9.132014313908957	-93.79238768854208	0	0.9399999998679526	0	43.72834464810201	-10.36575393077501	0	58.27371476521741	1.017068190021078	-5.147566742645943	0	0	43.72834464810201	-10.36575393077501	0	58.27371476521741	1.017068190021078	-5.147566742645943	0	0	-12.65775719702443	-0.5404076304951181	-6.229522344798567	15.55366485167248	-17.93199411389159	17.16646151236193	18.7745371717705	4.663003105628929	0	0	0	-10.4189062579125	0	85.38585598707115	4.663003105628929	0	0
1.42	2.64972133774828	8.314391556546926	-93.7114459235779	0	0.9399999998679526	0	43.72903737295915	-10.36505907246723	0	58.2744541012361	1.017081093868883	-5.147201219804097	0	0	43.72903737295915	-10.36505907246723	0	58.2744541012361	1.017081093868883	-5.147201219804097	0	0	-12.348143516198	-0.5464027214678016	-5.891931002825042	12.00599198683414	-19.98971779999809	15.74085909846008	21.74718641347882	4.661230873296116	0	0	0	-10.4201868716376	0	85.38760949122855	4.661230873296116	0	0
